<svg width="106" height="70" viewBox="0 0 106 70" fill="none" xmlns="http://www.w3.org/2000/svg">
<path d="M12 36H22V46H12V36Z" fill="white"/>
<path d="M12 48H22V58H12V48Z" fill="white"/>
<path d="M0 36H10V46H0V36Z" fill="white"/>
<path d="M0 48H10V58H0V48Z" fill="white"/>
<path d="M0 60H10V70H0V60Z" fill="white"/>
<path d="M12 60H22V70H12V60Z" fill="white"/>
<path d="M48 36H58V46H48V36Z" fill="white"/>
<path d="M48 48H58V58H48V48Z" fill="white"/>
<path d="M24 12H34V22H24V12Z" fill="white"/>
<path d="M72 60H82V70H72V60Z" fill="white"/>
<path d="M0 24H10V34H0V24Z" fill="white"/>
<path d="M12 24H22V34H12V24Z" fill="white"/>
<path d="M12 12H22V22H12V12Z" fill="white"/>
<path d="M0 12H10V22H0V12Z" fill="white"/>
<path d="M12 0H22V10H12V0Z" fill="white"/>
<path d="M0 0H10V10H0V0Z" fill="white"/>
<path d="M24 24H34V34H24V24Z" fill="white"/>
<path d="M36 24H46V34H36V24Z" fill="white"/>
<path d="M36 36H46V46H36V36Z" fill="white"/>
<path d="M60 48H70V58H60V48Z" fill="white"/>
<path d="M60 60H70V70H60V60Z" fill="white"/>
<path d="M72 24H82V34H72V24Z" fill="white"/>
<path d="M72 36H82V46H72V36Z" fill="white"/>
<path d="M60 24H70V34H60V24Z" fill="white"/>
<path d="M60 36H70V46H60V36Z" fill="white"/>
<path d="M36 60H46V70H36V60Z" fill="white"/>
<path d="M48 48H58V58H48V48Z" fill="white"/>
<path d="M60 36H70V46H60V36Z" fill="white"/>
<path d="M72 24H82V34H72V24Z" fill="white"/>
<path d="M84 12H94V22H84V12Z" fill="white"/>
<path d="M96 0H106V10H96V0Z" fill="white"/>
<path d="M36 0H46V10H36V0Z" fill="white"/>
<path d="M48 12H58V22H48V12Z" fill="white"/>
<path d="M60 24H70V34H60V24Z" fill="white"/>
<path d="M72 36H82V46H72V36Z" fill="white"/>
<path d="M84 48H94V58H84V48Z" fill="white"/>
<path d="M96 60H106V70H96V60Z" fill="white"/>
</svg>
